<svg viewbox=" 0 0 266 172" width="266" height="172" xmlns="http://www.w3.org/2000/svg"><g fill="none" fill-rule="evenodd" opacity=".5"><path d="M193.314 150.71a2.5 2.5 0 11-3.536-3.536l.355-.354-41.013-41.012c-1.046-1.046-17.218-13.59-34.648-28.991-7.993-7.062-23.186-20.97-45.58-41.725a7.001 7.001 0 01-.192-10.084l6.174-6.174a7 7 0 0110.084.192c20.755 22.394 34.663 37.588 41.724 45.58 15.4 17.43 27.946 33.602 28.992 34.648l41.011 41.013.355-.354a2.5 2.5 0 113.535 3.535z" fill="#EEEAE4" opacity=".4"/><path d="M71.865 137.62a4.502 4.502 0 00-6.441 4.06c0 1.152.44 2.304 1.318 3.183l7.261 7.26a4.486 4.486 0 003.182 1.319c1.152 0 2.303-.44 3.182-1.318a4.502 4.502 0 00.88-5.123l39.779-39.779c.281-.281 1.713-1.425 3.987-3.262 6.087-4.916 18.003-14.54 30.57-25.644 8-7.067 23.205-20.986 45.863-41.994a8.972 8.972 0 002.636-6.364 8.972 8.972 0 00-2.636-6.364l-6.37-6.364a8.858 8.858 0 00-6.425-2.418c-2.235.08-4.491.995-6.344 2.854-20.771 22.412-34.69 37.617-41.757 45.616-11.105 12.568-20.728 24.483-25.644 30.57-1.837 2.274-2.981 3.706-3.263 3.988l-39.778 39.78z" stroke="#171513" stroke-width="4" fill="#EEEAE4"/><path d="M2.935 92v-4.32l.288-.36L4.987 92h2.088l-2.52-6.39 2.448-5.76H4.987l-2.052 5.166V79.85H.937V92h1.998zm11.686 0V79.85h-1.926V92h1.926zm10.408 0c.504 0 .909-.153 1.215-.459.306-.306.459-.711.459-1.215v-8.802c0-.504-.153-.909-.459-1.215-.306-.306-.711-.459-1.215-.459h-3.924V92h3.924zm-.648-1.746h-1.242v-8.658h1.242c.192 0 .288.096.288.288v8.082c0 .192-.096.288-.288.288zm13.396 3.564L37.129 92c.432 0 .783-.135 1.053-.405.27-.27.405-.627.405-1.071v-9.18c0-.456-.135-.819-.405-1.089s-.627-.405-1.071-.405h-2.682c-.456 0-.813.135-1.071.405s-.387.633-.387 1.089v9.18c0 .444.129.801.387 1.071.258.27.615.405 1.071.405h.792l.63 1.818h1.926zm-1.368-3.564h-1.314c-.06 0-.09-.054-.09-.162v-8.298c0-.132.03-.198.09-.198h1.314c.084 0 .126.066.126.198v8.298c0 .108-.042.162-.126.162zM48.995 92c.456 0 .819-.135 1.089-.405s.405-.627.405-1.071V79.85h-2.052v10.296a.182.182 0 01-.036.117c-.024.03-.048.045-.072.045h-1.224c-.024 0-.048-.015-.072-.045a.182.182 0 01-.036-.117V79.85h-2.034v10.674c0 .444.132.801.396 1.071.264.27.624.405 1.08.405h2.556zm12.46 0v-1.746h-2.448v-3.546h1.998v-1.692h-1.998v-3.42h2.448V79.85h-4.482V92h4.482zm10.336 0c.348 0 .636-.114.864-.342.228-.228.342-.522.342-.882v-3.492c0-.42-.114-.741-.342-.963-.228-.222-.528-.363-.9-.423.372-.048.678-.177.918-.387.24-.21.36-.555.36-1.035v-3.402c0-.36-.114-.654-.342-.882-.228-.228-.522-.342-.882-.342h-4.392V92h4.374zm-1.098-7.002h-1.242V81.65h1.242c.192 0 .288.096.288.288v2.772c0 .192-.096.288-.288.288zm0 5.202h-1.242v-3.51h1.242c.192 0 .288.096.288.288v2.952c0 .18-.096.27-.288.27zm127.584 1.908c.444 0 .795-.135 1.053-.405.258-.27.387-.627.387-1.071v-3.168h-2.016v2.7c0 .12-.042.18-.126.18h-1.116c-.084 0-.126-.06-.126-.18v-8.46c0-.132.042-.198.126-.198h1.116c.084 0 .126.066.126.198v2.646h2.016v-3.114c0-.456-.129-.819-.387-1.089s-.609-.405-1.053-.405h-2.52c-.432 0-.783.135-1.053.405-.27.27-.405.633-.405 1.089v9.396c0 .444.135.801.405 1.071.27.27.621.405 1.053.405h2.52zm9.382-.108v-5.13h1.656V92h1.998V79.85h-1.998v5.346h-1.656V79.85h-1.998V92h1.998zm12.064 0V79.85h-1.926V92h1.926zm7.348 1.278l4.284-14.706h-1.818l-4.302 14.706h1.836zM238.919 92v-3.366h2.034c.456 0 .819-.135 1.089-.405s.405-.633.405-1.089v-5.796c0-.456-.135-.819-.405-1.089s-.633-.405-1.089-.405h-4.086V92h2.052zm1.35-5.058h-1.35v-5.346h1.35c.084 0 .126.06.126.18v5.004a.194.194 0 01-.036.108c-.024.036-.054.054-.09.054zM252.477 92c.504 0 .909-.153 1.215-.459.306-.306.459-.711.459-1.215v-8.802c0-.504-.153-.909-.459-1.215-.306-.306-.711-.459-1.215-.459h-3.924V92h3.924zm-.648-1.746h-1.242v-8.658h1.242c.192 0 .288.096.288.288v8.082c0 .192-.096.288-.288.288zM261.625 92l1.026-3.618L263.839 92h1.998l-1.998-5.922 1.962-6.228h-1.908l-.918 3.654-1.206-3.654h-2.016l2.034 5.976L259.681 92h1.944z" fill="#FEFDFC" fill-rule="nonzero"/><path d="M146 147h-20v13.414l10 10 10-10V147z" stroke="#EEEAE4" stroke-width="2"/><path d="M135.5 0c7.456 0 13.5 6.044 13.5 13.5S142.956 27 135.5 27 122 20.956 122 13.5 128.044 0 135.5 0zm0 2C129.149 2 124 7.149 124 13.5S129.149 25 135.5 25 147 19.851 147 13.5 141.851 2 135.5 2z" fill="#EEEAE4" fill-rule="nonzero"/><path d="M137.956 158.023c.784 0 1.42-.22 1.91-.661a3.52 3.52 0 001.03-1.67l-1.281-.525c-.183.42-.4.767-.651 1.04-.252.273-.582.409-.988.409-.35 0-.71-.084-1.081-.252a31.764 31.764 0 01-1.103-.525 8.994 8.994 0 00-1.133-.472 3.83 3.83 0 00-1.24-.2c-.784 0-1.42.22-1.91.661a3.52 3.52 0 00-1.03 1.67l1.281.525c.183-.42.4-.767.651-1.04.252-.273.582-.409.988-.409.35 0 .71.084 1.081.252.371.168.739.343 1.103.525.363.182.742.34 1.133.472.392.133.805.2 1.24.2z" fill="#EEEAE4" fill-rule="nonzero" opacity=".4"/><path d="M128.394 23.005c.882 0 1.547-.235 1.995-.703.448-.47.672-1.138.672-2.006v-4.158c0-.434.101-.742.304-.924.203-.182.487-.273.851-.273h.735v-2.898h-.735c-.364 0-.648-.091-.85-.273-.204-.182-.305-.49-.305-.924V6.709c0-.868-.224-1.536-.672-2.005-.448-.47-1.113-.704-1.995-.704H127l-1 1.953h1.659c.364 0 .647.091.85.273.204.182.305.49.305.924v4.704c0 .28.049.511.147.693.098.182.224.332.378.451.154.12.333.218.536.295.202.077.416.143.64.199a5.709 5.709 0 00-.64.2 2.07 2.07 0 00-.536.293c-.154.12-.28.27-.378.452-.098.182-.147.413-.147.693v4.725c0 .434-.101.742-.304.924-.203.182-.487.273-.851.273H126L127 23l1.394.005zM142.557 23.005c-.882 0-1.547-.235-1.995-.703-.448-.47-.672-1.138-.672-2.006v-4.158c0-.434-.101-.742-.304-.924-.203-.182-.487-.273-.851-.273H138v-2.898h.735c.364 0 .648-.091.85-.273.204-.182.305-.49.305-.924V6.709c0-.868.224-1.536.672-2.005.448-.47 1.113-.704 1.995-.704h1.394l1 1.953h-1.659c-.364 0-.647.091-.85.273-.203.182-.305.49-.305.924v4.704c0 .28-.049.511-.147.693a1.401 1.401 0 01-.378.451 2.07 2.07 0 01-.535.295 5.709 5.709 0 01-.641.199c.224.056.438.122.64.2.204.076.382.175.536.293.154.12.28.27.378.452.098.182.147.413.147.693v4.725c0 .434.102.742.305.924.203.182.486.273.85.273h1.659l-1 1.948-1.394.005z" fill="#FEFEFD" fill-rule="nonzero" opacity=".4"/></g></svg>