<svg width="163" height="171" xmlns="http://www.w3.org/2000/svg"><g fill="none" fill-rule="evenodd"><g opacity=".1"><path d="M159.806 85.384l-78.489 78.489-78.489-78.49 78.49-78.488 78.488 78.489zm-5.657-.001L81.317 12.551 8.485 85.383l72.832 72.832 72.832-72.832z" fill="#FFF" fill-rule="nonzero"/><path stroke="#FFF" stroke-width="4" d="M81.317 9.828L95.46 23.97 81.317 38.112 67.175 23.97zM92.317 134.884h-22v14.828l11 11 11-11v-14.828zM142.317 71.828L156.46 85.97l-14.142 14.142-14.142-14.142zM20.317 70.828L34.46 84.97 20.317 99.112 6.175 84.97z"/></g><path d="M32.436 52.947l5.657 5.656-26.78 26.779 25.865 25.865-5.658 5.656L0 85.383l32.436-32.436zm97.21 0l32.436 32.437-31.52 31.52-5.658-5.657 25.864-25.865-26.78-26.779 5.657-5.656zM44.857 166.282a2.5 2.5 0 111.792-4.668l.467.18 20.785-54.149c.53-1.38 5.413-21.257 12.392-43.444 3.2-10.174 9.726-29.71 19.578-58.61a7 7 0 019.135-4.277l8.15 3.129a7 7 0 013.927 9.29c-12.016 28.069-20.24 46.955-24.668 56.656-9.66 21.159-19.331 39.197-19.861 40.578l-20.786 54.147.467.18a2.5 2.5 0 11-1.792 4.668z" fill="#EEEAE4"/></g></svg>