<svg width="158" height="41" xmlns="http://www.w3.org/2000/svg"><g fill="none" fill-rule="evenodd"><path d="M76.6 28v-4.8l.32-.4 1.96 5.2h2.32l-2.8-7.1 2.72-6.4h-2.24l-2.28 5.74V14.5h-2.22V28h2.22zm13.54 0V14.5H88V28h2.14zm12.12 0c.56 0 1.01-.17 1.35-.51.34-.34.51-.79.51-1.35v-9.78c0-.56-.17-1.01-.51-1.35-.34-.34-.79-.51-1.35-.51H97.9V28h4.36zm-.72-1.94h-1.38v-9.62h1.38c.213 0 .32.107.32.32v8.98c0 .213-.107.32-.32.32zm15.44 3.96l-.72-2.02c.48 0 .87-.15 1.17-.45.3-.3.45-.697.45-1.19v-10.2c0-.507-.15-.91-.45-1.21-.3-.3-.697-.45-1.19-.45h-2.98c-.507 0-.903.15-1.19.45-.287.3-.43.703-.43 1.21v10.2c0 .493.143.89.43 1.19.287.3.683.45 1.19.45h.88l.7 2.02h2.14zm-1.52-3.96H114c-.067 0-.1-.06-.1-.18v-9.22c0-.147.033-.22.1-.22h1.46c.093 0 .14.073.14.22v9.22c0 .12-.047.18-.14.18zM130 28c.507 0 .91-.15 1.21-.45.3-.3.45-.697.45-1.19V14.5h-2.28v11.44a.202.202 0 01-.04.13c-.027.033-.053.05-.08.05h-1.36c-.027 0-.053-.017-.08-.05a.202.202 0 01-.04-.13V14.5h-2.26v11.86c0 .493.147.89.44 1.19.293.3.693.45 1.2.45H130zm14.4 0v-1.94h-2.72v-3.94h2.22v-1.88h-2.22v-3.8h2.72V14.5h-4.98V28h4.98zm12.04 0c.387 0 .707-.127.96-.38s.38-.58.38-.98v-3.88c0-.467-.127-.823-.38-1.07-.253-.247-.587-.403-1-.47.413-.053.753-.197 1.02-.43.267-.233.4-.617.4-1.15v-3.78c0-.4-.127-.727-.38-.98s-.58-.38-.98-.38h-4.88V28h4.86zm-1.22-7.78h-1.38V16.5h1.38c.213 0 .32.107.32.32v3.08c0 .213-.107.32-.32.32zm0 5.78h-1.38v-3.9h1.38c.213 0 .32.107.32.32v3.28c0 .2-.107.3-.32.3z" fill="#EEEAE4" fill-rule="nonzero"/><g fill="#FFF"><path d="M9.806 11l1.71 1.68-8.096 7.956 7.82 7.684L9.53 30 0 20.636 9.806 11zm29.388 0L49 20.636 39.47 30l-1.71-1.68 7.82-7.684-8.096-7.956 1.71-1.68z" opacity=".4"/><path d="M32.281.457l-.002.005a2.59 2.59 0 011.339 3.282l-.034.084c-2.704 6.364-4.566 10.678-5.586 12.94-2.32 5.15-4.623 9.551-4.752 9.886l-5.05 13.154.06.023a.607.607 0 01-.436 1.134l-1.1-.423v-.001l-.95-.363a.608.608 0 01-.377-.69l.028-.094a.607.607 0 01.784-.35l.06.023 5.048-13.155c.13-.335 1.362-5.146 3.084-10.526.757-2.364 2.26-6.815 4.508-13.354l.031-.086A2.589 2.589 0 0132.281.457l-.154-.054.002-.004.075.03.077.028z"/></g></g></svg>