<svg width="158" height="41" xmlns="http://www.w3.org/2000/svg"><g fill="none" fill-rule="evenodd"><text font-family="DDCHardware-Compressed, DDC Hardware" font-size="20" font-style="condensed" letter-spacing="5" fill="#EEEAE4" transform="translate(0 -1)"><tspan x="73" y="29">KIDQUEB</tspan></text><g fill="#FFF"><path d="M9.806 11l1.71 1.68-8.096 7.956 7.82 7.684L9.53 30 0 20.636 9.806 11zm29.388 0L49 20.636 39.47 30l-1.71-1.68 7.82-7.684-8.096-7.956 1.71-1.68z" opacity=".4"/><path d="M32.281.457l-.002.005a2.59 2.59 0 011.339 3.282l-.034.084c-2.704 6.364-4.566 10.678-5.586 12.94-2.32 5.15-4.623 9.551-4.752 9.886l-5.05 13.154.06.023a.607.607 0 01-.436 1.134l-1.1-.423v-.001l-.95-.363a.608.608 0 01-.377-.69l.028-.094a.607.607 0 01.784-.35l.06.023 5.048-13.155c.13-.335 1.362-5.146 3.084-10.526.757-2.364 2.26-6.815 4.508-13.354l.031-.086A2.589 2.589 0 0132.281.457l-.154-.054.002-.004.075.03.077.028z"/></g></g></svg>